<svg width="240" height="65" fill="none" xmlns="http://www.w3.org/2000/svg"><path d="M34.488 1.654c1.226.534 2.57.44 3.848.71.9.188 1.073.47.756 1.358-.855 2.404-1.623 4.841-2.367 7.28-.212.698-.5.932-1.245.82-6.85-1.016-12.734.927-17.603 5.872-.35.355-.574.383-.978.087a363.314 363.314 0 00-6.78-4.918c-.656-.464-.4-.747-.009-1.182 4.377-4.862 9.766-7.947 16.153-9.33 1.165-.252 2.398-.148 3.5-.697h.473c1.34.201 2.677.201 4.016 0h.236zM153.78 60.982c-.471-.397-1.108-.3-1.626-.551-.283-.137-.607-.274-.465-.69.161-.47.487-.274.768-.151.789.345 1.62.252 2.442.24.832-.014 1.474-.356 1.644-1.224.175-.886-.234-1.531-1.027-1.917-.742-.359-1.519-.645-2.249-1.026-1.207-.626-1.663-1.531-1.42-2.673.244-1.148 1.051-1.815 2.346-1.947.836-.085 1.646.054 2.44.3.392.12.586.406.413.822-.181.44-.458.123-.677.045-.749-.26-1.501-.385-2.297-.231-.649.125-1.079.463-1.228 1.104-.163.697.113 1.278.704 1.614.713.406 1.488.704 2.237 1.052.933.434 1.67 1.028 1.776 2.155.149 1.58-.678 2.546-2.463 2.837-.225.035-.482-.04-.607.238-.239.003-.475.003-.711.003zM65.235 40.154l-.274.028V15.128c.734-.173 1.516-.721 2.102.269-1.47.288-1.519 1.333-1.512 2.562.043 6.604.021 13.208.017 19.81 0 .588.038 1.18-.057 1.766-.03.236-.12.442-.276.619z" fill="#465A8C"/><path d="M34.252 1.654c-1.34.4-2.676.383-4.016 0h4.016zM2.584 31.27c.055-5.213 1.382-10.156 4.007-14.77.467-.822.781-.654 1.388-.21a3862.078 3862.078 0 0019.94 14.487c.744.536.692.78-.012 1.29A3353.13 3353.13 0 007.873 46.644c-.694.51-.923.307-1.287-.324-2.662-4.635-3.983-9.622-4.002-15.05zM33.702 61.07c-9.237.253-17.053-2.924-23.42-9.672-.691-.733-.673-1.085.173-1.664 2.14-1.465 4.224-3.016 6.293-4.58.531-.403.784-.313 1.235.13 4.897 4.807 10.746 6.78 17.552 5.722.739-.116.947.094 1.145.73.796 2.546 1.626 5.08 2.49 7.601.25.73.014.97-.673 1.095-1.585.293-3.175.539-4.795.638zM56.783 29.326c-1.337 0-2.674-.028-4.009.014-.595.02-.782-.182-.883-.768-1.191-6.843-4.852-11.898-11.037-15.085-.52-.267-.522-.557-.363-1.033.852-2.569 1.703-5.14 2.501-7.726.225-.73.517-.794 1.167-.49 10.058 4.737 15.91 12.587 17.473 23.608.208 1.473.15 1.482-1.31 1.482-1.18-.002-2.36-.002-3.54-.002zM56.846 33.36c1.22 0 2.448.087 3.657-.026 1.144-.109 1.283.347 1.167 1.33-.692 5.858-2.9 11.06-6.633 15.615-2.943 3.593-6.576 6.285-10.781 8.24-.765.357-1.047.248-1.294-.575a199.65 199.65 0 00-2.434-7.502c-.236-.683-.075-.948.541-1.257 6.168-3.094 9.827-8.044 10.814-14.898.11-.747.326-.981 1.07-.946 1.295.062 2.594.02 3.893.02zM65.225 39.704c-.01-7.814-.016-15.628-.03-23.443-.003-1.664 1.195-.688 1.868-.865 0 2.284-.012 4.564.014 6.848.002.255-.333.917.473.673 2.289-.89 4.622-1.401 7.108-1.073 1.048.14 1.939.563 2.815 1.09 1.947 1.458 2.476 3.576 2.525 5.822.078 3.415.02 6.835.024 10.253.002.707-.116 1.18-1.03 1.18-.964-.003-.829-.59-.829-1.17 0-3.222.043-6.444-.017-9.665-.035-1.894-.18-3.804-2.08-4.95a4.066 4.066 0 00-1.642-.577c-.664-.513-1.446-.333-2.167-.29-1.618.092-3.156.572-4.672 1.139-.732.274-.619.81-.621 1.345-.005 4.17-.003 8.341-.003 12.51.003 1.506-.26 1.681-1.736 1.173zM104.906 27.652c0-3.777.018-7.552-.015-11.329-.007-.822.175-1.222 1.103-1.213.943.01.969.532.969 1.225-.009 7.514-.007 15.025-.007 22.54 0 .697.019 1.318-1.018 1.314-.846-.005-1.056-.286-1.049-1.09.035-3.815.017-7.63.017-11.447zM212.835 27.656c0-3.777.004-7.554-.005-11.33-.002-.656-.083-1.225.919-1.22.923.004.985.434.985 1.16-.017 7.592-.017 15.186 0 22.778.002.73-.066 1.14-.985 1.147-1.006.007-.921-.553-.919-1.206.009-3.774.005-7.552.005-11.329zM179.107 59.35c.737-1.736 1.132-3.365 1.564-4.982.09-.338.075-.744.586-.725.482.019.522.428.597.756.381 1.643.858 3.255 1.564 4.945.704-1.608 1.143-3.149 1.545-4.702.068-.264.144-.531.255-.782.121-.267.378-.246.612-.198.272.054.234.248.187.453a35.806 35.806 0 01-2.001 6.035c-.137.31-.362.364-.659.373-.404.01-.534-.27-.652-.57a32.208 32.208 0 01-1.413-4.292c-.546 1.518-.999 2.782-1.453 4.05-.13.363-.193.77-.715.81-.582.045-.721-.38-.884-.78a36.366 36.366 0 01-1.743-5.375c-.057-.243-.359-.645.205-.73.409-.062.619.099.728.548.413 1.704.905 3.385 1.677 5.167zM166.991 55.916c0-1.22-.047-2.439.012-3.656.078-1.593 1.932-2.702 3.376-2.075.226.099.423.215.399.505-.026.315-.248.36-.501.357-.354-.002-.709-.028-1.061-.002-1.093.08-1.261.825-1.301 1.74-.05 1.082.706.749 1.273.848.491.085 1.403-.343 1.391.32-.014.777-.959.408-1.466.392-.9-.029-1.267.205-1.208 1.18.085 1.37.029 2.75.017 4.126-.002.366.123.87-.51.841-.546-.023-.423-.475-.428-.803-.014-1.258-.005-2.517-.005-3.775l.012.002zM174.045 59.836c.475-.029.673-.064.867-.05.293.021.68-.473.869.13.201.643-.382.586-.697.688-1.826.586-3.075-.253-3.123-2.144-.049-2.04-.018-4.082-.014-6.124 0-.336-.087-.761.437-.809.56-.05.546.388.494.719-.184 1.182.343 1.56 1.441 1.378.191-.03.394-.021.588 0 .279.033.73-.125.695.371-.029.418-.437.355-.747.378-1.965.147-1.965.149-1.965 2.13 0 .666-.019 1.335.016 2.002.048.88.449 1.413 1.139 1.33zM195.333 57.458c0 .785.002 1.567-.002 2.352-.003.312.021.661-.43.69-.546.035-.513-.367-.515-.719-.005-1.725.012-3.45-.012-5.174-.007-.572.215-.844.772-.974.773-.18 1.541-.293 2.322-.149.277.052.527.209.473.56-.047.303-.293.31-.536.325-.65.04-1.484-.317-1.904.212-.456.575-.111 1.437-.168 2.172-.014.232 0 .468 0 .705z" fill="#465A8C"/><path d="M65.225 39.704c1.623.01 1.623.01 1.623-1.66 0-4.048.017-8.1-.014-12.148-.007-.773.2-1.166.97-1.478a14.28 14.28 0 016.204-1.023c.3.017.586-.01.418.433-2.367-.509-4.547.267-6.744.966-.66.21-.612.714-.612 1.232.003 4.122.017 8.242-.005 12.364-.01 1.907.385 1.808-1.833 1.766 0-.152-.004-.303-.007-.452zM77.476 22.934c-3.06-1.498-6.14-1.189-9.234-.116-.215.076-.459.069-.69.1 2.832-1.412 5.75-1.908 8.8-.769.424.159.909.293 1.124.785zM142.951 22.416c-2.131-.621-4.287-.498-6.449-.231.518-.75 1.373-.45 2.044-.55 1.519-.233 3.056-.152 4.405.781zM234.569 26.35c-.909-2.534-3.179-4.352-5.407-4.399l-4.077.234h0c-1.389.232-2.442 1.019-3.248 2.11-2.374 3.215-2.61 6.813-1.701 10.552.699 2.874 2.62 4.593 5.45 5.262 1.972.465 3.973.347 5.945-.074.761-.163 1.534-.35 2.24-.661.737-.324.498-1.074.477-1.681-.012-.36-.288-.3-.52-.2-1.904.831-3.904.866-5.95.907-3.666.073-5.962-2.094-5.965-6.266.357-.367.815-.213 1.226-.213 3.409-.012 6.818-.052 10.224.019 1.018.021 1.878.019 2.164-.955.028-.144.054-.305.087-.49v-.945c-.312-1.07-.569-2.155-.945-3.2zm-2.301 3.968c-3.337-.068-6.68-.023-10.02-.023-.281 0-.706.184-.626-.376.312-2.168.706-4.295 2.83-5.54.794-.466 1.663-.674 2.558-.804l-.002-.17c.392-.362.784-.362 1.179 0l-.003.177c3.449.522 4.684 2.742 5.181 5.41.167.903.004 1.35-1.097 1.326zM126.555 25.672c-.968-2.133-2.686-3.47-5.109-3.72-1.845.016-3.695-.025-5.502.465h.002-.002c-2.346.815-3.427 2.607-3.456 4.947-.073 6.143-.016 12.286-.035 18.43-.003.704.111 1.08.952 1.077.831 0 .971-.357.959-1.07-.033-2.04-.012-4.08-.012-6.231 1.54.44 2.986.766 4.479.81.382-.3.767-.3 1.15 0 3.213-.115 5.724-1.392 6.886-4.533 1.264-3.401 1.193-6.862-.312-10.175zm-1.516 9.69c-.633 1.768-1.985 2.77-3.742 3.038-1.973.3-3.969.165-5.915-.414-.737-.22-1.091-.565-1.051-1.411.075-1.53.021-3.068.021-4.602v-3.895c0-2.638.902-3.85 3.48-4.366a9.028 9.028 0 013.621.033c1.899.4 3.149 1.57 3.694 3.406.82 2.737.867 5.486-.108 8.211zM87.503 32.12c3.343.04 6.688.017 10.032.017 2.844 0 2.901-.008 2.601-2.804-.359-3.349-2.079-7.204-6.89-7.575-3.577-.277-6.503 1.347-7.822 4.675-1.169 2.95-1.256 5.982-.293 9.008.719 2.252 2.256 3.741 4.515 4.436 2.674.825 5.343.577 7.981-.177 1.553-.442 1.579-.539 1.203-2.382-2.084 1.172-4.377 1.02-6.628 1.148-2.08.118-4.28-1.304-5.008-3.27-.232-.625-.312-1.303-.553-1.923-.357-.91-.076-1.163.862-1.153zm-1.016-2.59c.501-3.258 1.666-5.475 5.405-5.952l-.002-.17c.392-.364.784-.362 1.178-.003 0 .062 0 .12-.002.182 3.671.622 4.642 2.855 5.173 5.69.114.61.043 1.04-.798 1.03a629.263 629.263 0 00-10.134-.007c-.562.005-.924-.097-.82-.77zM167.457 31.262c-.116-2.175-.39-4.321-1.557-6.22-1.089-1.772-2.61-2.942-4.769-3.09l-4.077.233h0c-.402.123-.808.177-1.2.393-2.119 1.165-3.222 3.034-3.761 5.299-.772 3.238-.772 6.429 1.07 9.336 1.266 1.995 3.276 2.773 5.575 3.061 2.32.29 4.516-.09 6.706-.759 1.018-.31.957-1.181.73-1.831-.231-.66-.798-.052-1.157.092-2.022.803-4.167.787-6.227.593-3.064-.29-4.146-1.607-5.008-5.053-.232-.927-.073-1.21.933-1.197 3.855.055 7.713.02 11.568.026.628-.004 1.221.015 1.174-.884zm-3.095-.946c-3.378-.057-6.756-.024-10.136-.014-.368.002-.723.104-.631-.492.487-3.19 1.274-5.628 5.384-6.233 0-.056-.003-.113-.003-.172.393-.362.787-.362 1.179 0 0 .059 0 .118-.002.177 3.527.52 4.764 2.895 5.19 5.526.127.783.023 1.225-.981 1.208zM207.191 27.101c-.479-1.716-1.398-3.132-2.867-4.167-1.174-.34-2.254-1.03-3.539-.97l-2.124-.002c-.316.005-.63.01-.947.017-.503.378-1.131.281-1.691.437-2.256.75-3.404 2.463-3.442 4.687-.109 6.283-.028 12.57-.052 18.855-.002.775.336.9.997.905.654.003.905-.2.893-.879-.036-1.768.024-3.536-.026-5.302-.024-.858.059-1.21 1.063-.848 1.096.392 2.277.517 3.456.55.382-.3.768-.3 1.15 0 3.725-.106 6.255-1.947 7.188-5.407.707-2.61.674-5.255-.059-7.876zm-2.376 8.897c-1.394 2.437-3.728 2.597-6.154 2.505-.387-.014-.772-.057-1.159-.078-2.632-.142-3.093-.652-3.093-3.278 0-2.402-.004-4.803.003-7.202.005-2.397.725-3.361 3.049-4.122-.007-.111-.04-.312-.018-.317 1.833-.499 3.637-.565 5.355.418.056.033.075.13.113.199 2.988 2.635 3.912 8.36 1.904 11.875z" fill="#465A8C"/><path d="M147.321 28.37c-.517-2.645-1.625-4.916-4.37-5.956-2.121-.884-4.275-.842-6.449-.232-2.645.662-4.171 2.614-4.185 5.505-.026 6.008 0 12.019-.019 18.03-.003.723.059 1.174.989 1.158.872-.014.929-.437.919-1.106-.026-1.768.029-3.536-.026-5.302-.023-.808.204-.91.929-.674 1.15.374 2.352.546 3.567.589.456-.314.916-.3 1.379-.014 3.815-.272 6.175-2.128 7.068-5.588a14.4 14.4 0 00.198-6.41zm-2.643 7.523c-.725 1.357-1.859 2.274-3.395 2.48-2.107.281-4.207.239-6.259-.473-.626-.217-.848-.534-.841-1.194.03-3.072.007-6.143.016-9.215.003-.8.206-1.553.669-2.222.593-1.536 2.045-1.714 3.342-1.962 1.874-.357 3.721-.248 5.171 1.276 2.362 2.66 3.002 8.124 1.297 11.31zM187.72 27.913c-.511-2.303-1.623-4.234-3.903-5.26-2.6-.872-5.227-.888-7.873-.234-2.029.627-3.227 2.087-4.006 3.978-.884 2.144-.839 4.397-.64 6.623.408 4.557 3.304 7.24 7.769 7.368.383-.298.765-.298 1.148-.005 3.895-.12 6.484-2.198 7.41-5.947.541-2.17.574-4.363.095-6.523zm-2.062 6.696c-.686 2.318-2.486 3.741-4.907 3.911-1.103.078-2.218.102-3.281-.139-2.05-.466-3.347-1.803-3.942-3.817-.579-1.957-.586-3.945-.27-5.942.522-3.31 2.929-5.24 6.43-5.009 4.297-.125 6.021 2.312 6.409 5.97.179 1.69.047 3.378-.439 5.026zM201.38 53.5c-1.871.405-2.886 2.53-2.326 4.726.517 2.028 2.253 2.99 4.355 2.39.336-.098.919-.053.818-.627-.116-.657-.607-.248-.943-.206-1.689.218-2.596-.108-3.061-1.12-.484-1.057-.345-1.274.822-1.281.432-.002.862 0 1.294-.002.589 0 1.177.002 1.765-.003.321-.002.645-.002.685-.447.203-2.233-1.193-3.907-3.409-3.43zm2.386 2.605c-.09.755-.831.237-1.264.364-.179.055-.389.01-.585.01-.197 0-.4.033-.589-.007-.42-.09-1.058.293-1.219-.336-.146-.567.256-1.052.695-1.409.607-.489 1.327-.527 2.008-.252.685.279 1.034.971.954 1.63zM192.224 56.139c-.111-2.213-1.71-3.276-3.831-2.572-.302.1-.657.13-.548.582.092.38.376.28.659.255.505-.045 1.023-.085 1.526-.033.879.092 1.165.692 1.12 1.503-.055.96-.695.409-1.122.442-.39.028-.778.092-1.16.163-1.243.23-1.798.875-1.807 2.073-.01 1.22.526 1.88 1.745 2.151 2.509.558 3.426-.158 3.426-2.676v-.236c-.003-.55.021-1.104-.008-1.652zm-2.447 3.713c-1.282-.064-1.812-.442-1.762-1.368.047-.896.735-1.308 2.133-1.28 1.028.022 1.028.022 1.006 1.421.27 1.069-.387 1.274-1.377 1.227zM161.948 53.411c-1.847-.014-3.196 1.515-3.208 3.633-.014 2.217 1.297 3.725 3.22 3.706 1.854-.016 3.158-1.531 3.158-3.668.002-2.118-1.33-3.659-3.17-3.67zm.017 6.425c-1.378.02-2.245-1.036-2.254-2.745-.009-1.654.801-2.704 2.121-2.746 1.418-.045 2.292.962 2.318 2.668.023 1.702-.827 2.801-2.185 2.823z" fill="#465A8C"/></svg>